<?xml version="1.0" encoding="UTF-8"?>
<svg width="47px" height="55px" viewBox="0 0 47 55" version="1.1" xmlns="http://www.w3.org/2000/svg" xmlns:xlink="http://www.w3.org/1999/xlink">
    <!-- Generator: Sketch 48.2 (47327) - http://www.bohemiancoding.com/sketch -->
    <title>Group 8</title>
    <desc>Created with Sketch.</desc>
    <defs></defs>
    <g id="Page-1" stroke="none" stroke-width="1" fill="none" fill-rule="evenodd">
        <g id="Group-8" fill="#212121">
            <polygon id="Combined-Shape" points="23.2584179 12.276048 10.3370746 19.8805281 10.3370746 31.5669806 14.7055304 28.9963588 15.2387447 28.6821569 15.2387447 22.7653518 20.8095337 19.4867815 20.8095337 28.1917813 21.9162785 28.8433855 23.1608787 29.5758603 24.4048287 28.8433855 25.4049306 28.2547542 25.7073022 28.0764414 25.7073022 19.4874443 31.2774409 22.7653518 31.2774409 28.441534 32.2203199 28.9963588 36.1797612 31.3263577 36.1797612 19.8805281"></polygon>
            <polygon id="Fill-16" points="29.5198307 33.3207018 23.1555893 36.7573287 16.9970051 33.4315804 12.0599204 36.0981824 23.1555893 42.0893075 34.4569155 35.9866911 29.7156636 33.4260671"></polygon>
            <path d="M41.2166429,37.8758083 L25.7756073,47.070153 L25.7756073,46.3187273 L25.7756073,37.6109506 L20.9278777,37.6109506 L20.9278777,46.3187273 L20.9278777,47.1816721 L5.30019292,37.8758083 L5.30019292,16.4893813 L23.2584179,5.79616779 L41.2166429,16.4893813 L41.2166429,37.8758083 Z M44.8994242,12.3698156 L24.8758296,0.446573926 C23.8750038,-0.148857975 22.641832,-0.148857975 21.6410063,0.446573926 L1.61741164,12.3698156 C0.616585892,12.9659113 0,14.0671616 0,15.2593531 L0,39.1058365 C0,40.2980279 0.616585892,41.3992782 1.61741164,41.9953739 L21.6410063,53.9179518 C22.1410974,54.2159997 22.6997576,54.3653555 23.2584179,54.3653555 C23.8170782,54.3653555 24.3750949,54.2159997 24.8758296,53.9179518 L44.8994242,41.9953739 C45.90025,41.3992782 46.5168359,40.2980279 46.5168359,39.1058365 L46.5168359,15.2593531 C46.5168359,14.0671616 45.90025,12.9659113 44.8994242,12.3698156 Z" id="Fill-24"></path>
        </g>
    </g>
</svg>