<?xml version="1.0" encoding="UTF-8"?>
<svg width="110px" height="35px" viewBox="0 0 110 35" version="1.1" xmlns="http://www.w3.org/2000/svg" xmlns:xlink="http://www.w3.org/1999/xlink">
    <!-- Generator: Sketch 48.2 (47327) - http://www.bohemiancoding.com/sketch -->
    <title>Group 3</title>
    <desc>Created with Sketch.</desc>
    <defs></defs>
    <g id="Page-1" stroke="none" stroke-width="1" fill="none" fill-rule="evenodd">
        <g id="Group-3" fill="#212121">
            <path d="M50.0111501,8.92803492 L47.8199058,8.92803492 C47.4173806,8.92803492 47.13083,9.10196743 46.9437467,9.45900874 L43.3756205,16.0092153 C43.2477944,16.2411253 43.1305499,16.3946197 42.9722487,16.3946197 C42.7716209,16.3946197 42.6476042,16.183982 42.5616813,16.0004561 L38.9994808,9.46151137 C38.809858,9.10196743 38.5233074,8.92803492 38.1224752,8.92803492 L35.9312309,8.92803492 C35.7234076,8.92803492 35.5608737,8.98184138 35.4355872,9.09237403 C35.3162264,9.19831853 35.2582391,9.34639057 35.2582391,9.54451513 L35.2582391,25.5112692 C35.2582391,25.5967756 35.2870211,25.6122084 35.2997191,25.6188821 C35.3610925,25.6518333 35.4228893,25.6681004 35.4872256,25.6681004 L38.5647874,25.6681004 C38.6202351,25.6681004 38.6612919,25.646411 38.6976927,25.5980269 C38.7472147,25.5321244 38.7709176,25.4591311 38.7709176,25.3732076 L38.7709176,15.7927381 C38.7709176,15.4615573 39.0066763,15.4448731 39.054082,15.4448731 C39.1827547,15.4448731 39.2940734,15.5270426 39.3863453,15.6901304 L41.4853178,19.4824431 C41.608488,19.6884926 41.7849896,19.7869292 42.0385255,19.7869292 L43.9034323,19.7869292 C44.1565449,19.7869292 44.3334698,19.6884926 44.4596028,19.4774378 L46.5551892,15.6913817 C46.6483076,15.5270426 46.7600496,15.4448731 46.888299,15.4448731 C46.9352814,15.4448731 47.1710402,15.4615573 47.1710402,15.7927381 L47.1710402,25.3732076 C47.1710402,25.458714 47.1951663,25.5321244 47.2442651,25.5971927 C47.2810891,25.646411 47.3217226,25.6681004 47.3775936,25.6681004 L50.4551554,25.6681004 C50.5194917,25.6681004 50.5808652,25.6518333 50.6422387,25.6188821 C50.6549366,25.6122084 50.6837187,25.5967756 50.6837187,25.5112692 L50.6837187,9.56703876 C50.6837187,9.36724579 50.6248848,9.2150027 50.5029844,9.10155032 C50.3785444,8.98476111 50.2177036,8.92803492 50.0111501,8.92803492" id="Fill-1"></path>
            <path d="M64.740267,13.3920524 L61.723844,13.3920524 C61.6468798,13.3920524 61.5847321,13.417104 61.5328739,13.46885 C61.4715494,13.5292204 61.430392,13.6051967 61.4056976,13.7000643 L59.2700422,22.7564376 L58.9584809,22.7564376 C58.6201674,22.7564376 58.5341485,22.3350772 58.50575,22.1966772 L56.4659911,13.6971896 C56.4404736,13.5986257 56.4026088,13.519364 56.3515737,13.4569402 C56.3264677,13.4265497 56.2857219,13.3920524 56.1931178,13.3920524 L53.1783411,13.3920524 C52.8873586,13.3920524 52.8873586,13.5119717 52.8873586,13.5912335 C52.8873586,13.6335338 52.8918859,13.6700845 52.9013521,13.6996537 L55.8955501,23.88294 C56.0284884,24.3683669 56.1721276,24.7478376 56.3235867,25.01396 C56.4705185,25.2718687 56.6269164,25.4644788 56.7890764,25.5864516 C56.9541174,25.708835 57.1150427,25.7848113 57.2800837,25.8176659 C57.4554141,25.8525739 57.6463843,25.8706439 57.8476438,25.8706439 L58.4036797,25.8706439 L58.1406842,26.7794846 C58.106112,26.894065 58.0694819,27.0394467 58.0295593,27.1963274 C57.8620488,27.8534196 57.737342,28.2953141 57.5360825,28.4423385 C57.2821416,28.6287884 56.929423,28.7232454 56.4882161,28.7232454 C56.3042427,28.7232454 56.0856971,28.7150318 55.8329909,28.6998365 C55.5806963,28.685052 55.3230512,28.6653392 55.0575863,28.6431623 C54.793356,28.6205748 54.5377688,28.6012727 54.290413,28.5868988 C54.0397647,28.5717036 53.8228654,28.5560976 53.6409499,28.541313 L53.6084356,28.5417237 C53.5285903,28.5417237 53.4606806,28.5684181 53.4010025,28.6230389 C53.3450285,28.6743742 53.3190993,28.7335125 53.3190993,28.8090781 L53.3190993,30.641544 C53.3190993,30.7117707 53.3421474,30.7384651 53.3791891,30.7581778 C53.4730279,30.8086918 53.574275,30.8538669 53.6886924,30.8961672 C53.8084603,30.9360034 53.9792634,30.9791251 54.2076867,31.0259429 C54.4241745,31.0686539 54.6575367,31.104794 54.9205322,31.1360059 C55.1757079,31.1659857 55.4300604,31.1922694 55.6848244,31.2144462 C55.934238,31.2366231 56.1663656,31.2481222 56.3737987,31.2481222 C57.1866565,31.2481222 57.8739845,31.1700925 58.4160269,31.0164972 C58.9510726,30.8649553 59.3955721,30.6435974 59.7375898,30.3585837 C60.0816653,30.0731592 60.3656511,29.7064196 60.5817273,29.2694533 C60.8015076,28.8230413 61.0035902,28.2871005 61.1822131,27.6772368 L64.9859765,13.7259374 C64.9876227,13.6967789 64.9925616,13.6631029 65.0073783,13.6310697 C65.0065551,13.5579682 64.9843302,13.5062221 64.9369992,13.4631005 C64.8826715,13.4150506 64.8201123,13.3920524 64.740267,13.3920524" id="Fill-3"></path>
            <path d="M77.8127628,26.4260926 C77.2399795,26.5220193 76.6050011,26.6055269 75.9027847,26.6766155 C75.200148,26.747704 74.3016809,26.7841048 73.205282,26.7841048 C72.4799525,26.7841048 71.7584052,26.6543468 71.04064,26.395259 C70.3228748,26.1353148 69.6824333,25.7186332 69.1193154,25.144786 C68.5561976,24.5705105 68.098139,23.8163725 67.7421981,22.8806589 C67.3883583,21.9449454 67.2110182,20.8006769 67.2110182,19.4482817 L67.2110182,16.2878396 C67.2110182,14.8566475 67.3955024,13.6691264 67.7669921,12.7257044 C68.1359603,11.7822825 68.6146105,11.0268597 69.2004212,10.4607209 C69.7879129,9.89543855 70.4510472,9.49802794 71.1915052,9.26934554 C71.9315429,9.04194787 72.6736819,8.92803492 73.4141399,8.92803492 C74.4937293,8.92803492 75.3846322,8.96357919 76.0872688,9.03423948 C76.7899055,9.10447153 77.3643697,9.17941426 77.8127628,9.25821119 C77.9199233,9.27448447 78.0123755,9.30531805 78.0896992,9.35199667 C78.1670228,9.39996002 78.2065251,9.48646535 78.2065251,9.61194089 L78.2065251,10.7917536 C78.2065251,10.9480628 78.1048277,11.0268597 77.905215,11.0268597 L77.8127628,11.0268597 C77.4715302,10.9960261 77.1441654,10.9681903 76.8277268,10.9446368 C76.5108679,10.9210834 76.1835031,10.9060948 75.8439515,10.89753 C75.5052403,10.8898216 75.1379529,10.8821132 74.7441907,10.8744048 C74.3525296,10.8658399 73.9079186,10.8619857 73.4141399,10.8619857 C72.8737148,10.8619857 72.3576635,10.9446368 71.8638847,11.1095108 C71.3684251,11.2748131 70.9334795,11.5651627 70.5548458,11.9809878 C70.1762121,12.3963846 69.8765829,12.9543868 69.6525965,13.6519966 C69.4281898,14.3517476 69.3172472,15.2262223 69.3172472,16.27799 L69.3172472,19.4337214 C69.3172472,20.4071205 69.4168434,21.2353448 69.6185573,21.917966 C69.8181699,22.6010155 70.0951063,23.1624436 70.4510472,23.6022504 C70.8053072,24.0420572 71.2179801,24.3593861 71.6886458,24.555522 C72.1597317,24.7520861 72.6644366,24.850154 73.205282,24.850154 C73.9154829,24.850154 74.5088578,24.8347372 74.9870878,24.8030471 C75.465738,24.7713571 75.8439515,24.739667 76.122989,24.7079769 L76.122989,17.9622744 C76.122989,17.8367989 76.1608103,17.7263118 76.2377137,17.6320981 C76.3154576,17.5374562 76.4150538,17.4903493 76.5394441,17.4903493 L77.7879689,17.4903493 C77.9123591,17.4903493 78.0161577,17.5374562 78.1010456,17.6320981 C78.1855133,17.7263118 78.2292179,17.8367989 78.2292179,17.9622744 L78.2292179,25.9010652 C78.2292179,26.2034056 78.0896992,26.3789858 77.8127628,26.4260926" id="Fill-5"></path>
            <path d="M83.6120061,26.6422736 C83.528404,26.7371151 83.420721,26.7841048 83.2880483,26.7841048 L81.9867648,26.7841048 C81.8522746,26.7841048 81.7441372,26.7371151 81.6609896,26.6422736 C81.5773876,26.5465699 81.5346778,26.4362089 81.5346778,26.309035 L81.5346778,9.37896319 C81.5346778,9.25265154 81.5773876,9.1453082 81.6609896,9.05822645 C81.7441372,8.9711447 81.8522746,8.92803492 81.9867648,8.92803492 L83.2880483,8.92803492 C83.420721,8.92803492 83.528404,8.9711447 83.6120061,9.05822645 C83.6956081,9.1453082 83.7383178,9.25265154 83.7383178,9.37896319 L83.7383178,26.309035 C83.7383178,26.4362089 83.6956081,26.5465699 83.6120061,26.6422736" id="Fill-7"></path>
            <path d="M96.8297238,26.472012 C96.7433382,26.5680406 96.638136,26.6156183 96.5115512,26.6156183 L95.334227,26.6156183 C95.2080698,26.6156183 95.1024399,26.5667311 95.016482,26.4689566 C94.9300964,26.3711821 94.8860483,26.2576938 94.8860483,26.1276188 L94.8860483,25.6636263 C94.2266099,26.0363917 93.6150685,26.3174934 93.0497134,26.5043125 C92.4839307,26.6902587 91.8475854,26.7841048 91.1419607,26.7841048 C89.7118945,26.7841048 88.6709911,26.3515399 88.0213887,25.4859735 C87.369648,24.6199707 87.0437777,23.3864405 87.0437777,21.782764 L87.0437777,13.8735045 C87.0437777,13.7451755 87.0895364,13.6325602 87.1836197,13.5369682 C87.277703,13.4400666 87.3888923,13.3920524 87.5133389,13.3920524 L88.6444767,13.3920524 C88.7706339,13.3920524 88.8801126,13.4400666 88.9741959,13.5360952 C89.0678516,13.6325602 89.1157485,13.7443025 89.1157485,13.8726316 L89.1157485,21.7661772 C89.1157485,22.373776 89.1657838,22.8814177 89.2692754,23.289539 C89.3710564,23.6976603 89.5280045,24.0215384 89.7409748,24.2611732 C89.9518069,24.5008081 90.2182337,24.6727864 90.5402552,24.7766719 C90.8622767,24.8809938 91.2514394,24.9329365 91.7077434,24.9329365 C92.2098061,24.9329365 92.7272643,24.8447648 93.2622561,24.668858 C93.7951097,24.4929512 94.3377993,24.2690301 94.8860483,23.9970947 L94.8860483,13.8726316 C94.8860483,13.7443025 94.9339453,13.6325602 95.0280286,13.5360952 C95.1216842,13.4400666 95.2328736,13.3920524 95.3577478,13.3920524 L96.5115512,13.3920524 C96.638136,13.3920524 96.7433382,13.4400666 96.8297238,13.5369682 C96.9161093,13.6325602 96.9601574,13.7451755 96.9601574,13.8735045 L96.9601574,26.1346027 C96.9601574,26.2633682 96.9161093,26.3751105 96.8297238,26.472012" id="Fill-9"></path>
            <path d="M107.441569,19.0810675 C107.441569,17.7840279 107.193091,16.8598872 106.695719,16.3098926 C106.197095,15.7603136 105.443741,15.4867713 104.432736,15.4867713 C103.438408,15.4867713 102.676298,15.7761109 102.149325,16.3556215 C101.620267,16.9363793 101.356781,17.8447227 101.356781,19.0810675 L101.356781,19.2872635 L107.441569,19.2872635 L107.441569,19.0810675 Z M109.46191,20.3174123 C109.46191,20.653728 109.31766,20.821678 109.028325,20.821678 L101.356781,20.821678 L101.356781,21.1421964 C101.356781,22.5007622 101.62402,23.4623175 102.160582,24.0264466 C102.694642,24.5922385 103.492606,24.8745109 104.548637,24.8745109 C105.221528,24.8745109 105.937361,24.8512307 106.695719,24.8059175 C107.452825,24.7601885 108.099451,24.6994937 108.635597,24.6221702 L108.74983,24.6221702 C108.843217,24.6221702 108.927016,24.6454504 109.004144,24.6911794 C109.080438,24.7364926 109.11796,24.8204676 109.11796,24.9426886 L109.11796,25.7217438 C109.11796,25.8743123 109.087943,25.9927918 109.02624,26.0767668 C108.964538,26.1603261 108.843217,26.2181109 108.65811,26.2480426 C108.000227,26.3710951 107.346097,26.4658787 106.695719,26.5340564 C106.043673,26.6030656 105.329924,26.6375702 104.548637,26.6375702 C103.889087,26.6375702 103.246213,26.5498537 102.620015,26.3735894 C101.99215,26.1985722 101.437244,25.9013339 100.95488,25.4814589 C100.472934,25.0619997 100.08229,24.4999492 99.783366,23.7986332 C99.4844422,23.0960701 99.3347718,22.2105912 99.3347718,21.1421964 L99.3347718,19.0810675 C99.3347718,17.4319149 99.7700249,16.1278082 100.640948,15.1650057 C101.511871,14.2034504 102.771353,13.7228806 104.42148,13.7228806 C105.262385,13.7228806 105.995311,13.8484274 106.621092,14.1011838 C107.247289,14.3522774 107.77051,14.7114576 108.190755,15.1770615 C108.611416,15.6430812 108.927016,16.207626 109.142141,16.8711116 C109.355182,17.5354287 109.46191,18.2724964 109.46191,19.0810675 L109.46191,20.3174123 Z" id="Fill-11"></path>
            <polygon id="Combined-Shape" points="14.8745696 7.81203055 6.61091983 12.6512451 6.61091983 20.0880786 9.40469967 18.4522283 9.74570882 18.2522817 9.74570882 14.487042 13.3084227 12.4006791 13.3084227 17.9402245 14.0162246 18.3548817 14.8121899 18.821002 15.6077393 18.3548817 16.2473394 17.9802982 16.4407165 17.8668263 16.4407165 12.4011009 20.0030145 14.487042 20.0030145 18.099158 20.6060185 18.4522283 23.1382194 19.9349549 23.1382194 12.6512451"></polygon>
            <polygon id="Fill-16" points="18.8789615 21.2040829 14.8088071 23.3910274 10.8701777 21.2746421 7.7127398 22.9715706 14.8088071 26.7841048 22.0363994 22.9006216 19.0042035 21.2711336"></polygon>
            <path d="M26.3594809,24.1027871 L16.4844,29.9537338 L16.4844,29.4755537 L16.4844,23.9342413 L13.3841078,23.9342413 L13.3841078,29.4755537 L13.3841078,30.0247004 L3.38965826,24.1027871 L3.38965826,10.4932426 L14.8745696,3.68847041 L26.3594809,10.4932426 L26.3594809,24.1027871 Z M28.7147481,7.87170086 L15.9089608,0.284183408 C15.2688978,-0.0947278025 14.4802414,-0.0947278025 13.8401784,0.284183408 L1.03439116,7.87170086 C0.394328187,8.25103449 0,8.95183014 0,9.7104974 L0,24.8855323 C0,25.6441996 0.394328187,26.3449952 1.03439116,26.7243288 L13.8401784,34.3114239 C14.1600041,34.5010907 14.5172869,34.5961353 14.8745696,34.5961353 C15.2318523,34.5961353 15.5887235,34.5010907 15.9089608,34.3114239 L28.7147481,26.7243288 C29.354811,26.3449952 29.7491392,25.6441996 29.7491392,24.8855323 L29.7491392,9.7104974 C29.7491392,8.95183014 29.354811,8.25103449 28.7147481,7.87170086 Z" id="Fill-24"></path>
        </g>
    </g>
</svg>