<?xml version="1.0" encoding="UTF-8"?>
<svg width="172px" height="68px" viewBox="0 0 172 68" version="1.1" xmlns="http://www.w3.org/2000/svg" xmlns:xlink="http://www.w3.org/1999/xlink">
    <!-- Generator: Sketch 48.2 (47327) - http://www.bohemiancoding.com/sketch -->
    <title>Group 14</title>
    <desc>Created with Sketch.</desc>
    <defs></defs>
    <g id="Page-1" stroke="none" stroke-width="1" fill="none" fill-rule="evenodd">
        <g id="Group-14">
            <path d="M78.199253,14.0297692 L74.7729437,14.0297692 C74.1435405,14.0297692 73.6954796,14.3030917 73.4029494,14.8641566 L67.8236975,25.1573383 C67.6238239,25.5217683 67.4404962,25.7629738 67.1929706,25.7629738 C66.8792618,25.7629738 66.6853447,25.4319717 66.5509927,25.1435738 L60.9810064,14.8680893 C60.6845052,14.3030917 60.2364443,14.0297692 59.6096884,14.0297692 L56.1833792,14.0297692 C55.8584192,14.0297692 55.6042753,14.1143222 55.4083727,14.2880163 C55.2217358,14.4545005 55.1310647,14.6871852 55.1310647,14.9985238 L55.1310647,40.0891373 C55.1310647,40.2235044 55.1760694,40.2477561 55.1959244,40.2582433 C55.2918901,40.3100238 55.3885178,40.3355863 55.4891164,40.3355863 L60.3013039,40.3355863 C60.388004,40.3355863 60.4522018,40.301503 60.5091195,40.2254708 C60.5865539,40.1219097 60.6236166,40.007206 60.6236166,39.8721834 L60.6236166,24.8171599 C60.6236166,24.2967328 60.9922575,24.2705148 61.0663828,24.2705148 C61.26758,24.2705148 61.4416421,24.3996384 61.5859217,24.6559193 L64.8679514,30.6152677 C65.0605448,30.9390598 65.3365291,31.0937459 65.7329671,31.0937459 L68.6490032,31.0937459 C69.0447793,31.0937459 69.3214255,30.9390598 69.5186517,30.6074023 L72.7953867,24.6578856 C72.94099,24.3996384 73.1157139,24.2705148 73.3162493,24.2705148 C73.3897127,24.2705148 73.7583537,24.2967328 73.7583537,24.8171599 L73.7583537,39.8721834 C73.7583537,40.0065506 73.7960782,40.1219097 73.8728508,40.2241599 C73.9304303,40.301503 73.9939662,40.3355863 74.0813282,40.3355863 L78.8935157,40.3355863 C78.9941144,40.3355863 79.0900801,40.3100238 79.1860459,40.2582433 C79.2059009,40.2477561 79.2509055,40.2235044 79.2509055,40.0891373 L79.2509055,15.0339181 C79.2509055,14.7199577 79.1589108,14.4807185 78.9683029,14.3024362 C78.773724,14.1189103 78.5222274,14.0297692 78.199253,14.0297692" id="Fill-1" fill="#212121"></path>
            <path d="M101.230236,21.0446537 L96.513647,21.0446537 C96.3933029,21.0446537 96.2961266,21.0840206 96.2150391,21.1653358 C96.11915,21.2602034 96.0547948,21.3795948 96.0161817,21.5286725 L92.6767932,35.7601162 L92.1896247,35.7601162 C91.6606254,35.7601162 91.5261232,35.0979785 91.4817181,34.8804927 L88.2922771,21.524155 C88.2523769,21.369269 88.1931701,21.2447148 88.1133698,21.1466204 C88.0741131,21.0988638 88.0104015,21.0446537 87.8656024,21.0446537 L83.151588,21.0446537 C82.6965971,21.0446537 82.6965971,21.2330984 82.6965971,21.3576526 C82.6965971,21.4241245 82.7036762,21.4815614 82.7184778,21.5280272 L87.4003147,37.5303343 C87.6081819,38.293148 87.8327813,38.8894591 88.0696083,39.3076514 C88.2993561,39.7129365 88.5439057,40.0156096 88.797465,40.207281 C89.0555291,40.3995978 89.3071577,40.5189891 89.5652219,40.5706178 C89.8393748,40.6254733 90.1379827,40.653869 90.4526793,40.653869 L91.3221174,40.653869 L90.910888,42.0820472 C90.8568296,42.2621022 90.7995536,42.4905591 90.7371291,42.737086 C90.4752036,43.7696594 90.2802075,44.4640651 89.9655109,44.6951034 C89.5684396,44.9880961 89.016916,45.1365286 88.3270288,45.1365286 C88.0393613,45.1365286 87.6976355,45.1236214 87.3024949,45.0997431 C86.9079979,45.0765102 86.5051347,45.045533 86.090044,45.0106837 C85.6768839,44.9751889 85.2772385,44.9448571 84.890464,44.9222696 C84.4985412,44.8983913 84.1593896,44.8738677 83.8749398,44.8506348 L83.8240993,44.8512801 C83.6992503,44.8512801 83.5930643,44.8932284 83.4997493,44.9790611 C83.4122263,45.0597309 83.3716826,45.1526625 83.3716826,45.2714085 L83.3716826,48.1509977 C83.3716826,48.261354 83.4077215,48.3033023 83.4656411,48.3342795 C83.6123708,48.4136586 83.7706845,48.484648 83.9495918,48.5511199 C84.1368653,48.6137197 84.4039391,48.6814823 84.7611102,48.7550532 C85.0996183,48.8221704 85.4645119,48.878962 85.8757413,48.9280092 C86.2747432,48.9751204 86.672458,49.0164233 87.0708164,49.0512727 C87.4608086,49.086122 87.8237716,49.1041921 88.1481215,49.1041921 C89.4191357,49.1041921 90.4938666,48.981574 91.3414239,48.7402099 C92.1780408,48.5020727 92.8730764,48.1542245 93.4078676,47.7063457 C93.9458767,47.2578216 94.3899272,46.6815166 94.7277917,45.9948552 C95.0714482,45.2933506 95.387432,44.4511579 95.6667333,43.4928007 L101.614436,21.5693301 C101.61701,21.5235097 101.624733,21.4705903 101.647901,21.4202523 C101.646613,21.3053785 101.611862,21.2240634 101.537853,21.1563007 C101.452904,21.0807938 101.355085,21.0446537 101.230236,21.0446537" id="Fill-3" fill="#212121"></path>
            <path d="M121.670866,41.526717 C120.775241,41.6774589 119.782365,41.8086852 118.684354,41.9203957 C117.585686,42.0321063 116.18081,42.0893075 114.466441,42.0893075 C113.332289,42.0893075 112.204052,41.8854021 111.081728,41.4782642 C109.959404,41.0697804 108.957987,40.414995 108.077475,39.5132351 C107.196963,38.6108023 106.480726,37.4257282 105.924164,35.9553212 C105.370888,34.4849142 105.093592,32.686778 105.093592,30.5615856 L105.093592,25.5951765 C105.093592,23.3461604 105.382058,21.4800557 105.962933,19.9975355 C106.539865,18.5150153 107.2883,17.3279224 108.204295,16.4382757 C109.122918,15.5499749 110.159819,14.9254725 111.317626,14.5661144 C112.474776,14.2087752 113.635212,14.0297692 114.793019,14.0297692 C116.481104,14.0297692 117.874152,14.0856244 118.97282,14.196662 C120.071489,14.3070267 120.969742,14.4247938 121.670866,14.5486176 C121.838426,14.5741899 121.982987,14.6226427 122.103893,14.6959948 C122.224799,14.7713657 122.286567,14.9073027 122.286567,15.1044785 L122.286567,16.95847 C122.286567,17.2040986 122.127549,17.3279224 121.815427,17.3279224 L121.670866,17.3279224 C121.137302,17.2794696 120.625422,17.2357275 120.130627,17.198715 C119.635175,17.1617025 119.123296,17.138149 118.59236,17.1246899 C118.062739,17.1125767 117.488435,17.1004636 116.872734,17.0883504 C116.260319,17.0748913 115.565109,17.0688347 114.793019,17.0688347 C113.94799,17.0688347 113.141074,17.198715 112.368983,17.4578027 C111.594265,17.7175634 110.914168,18.173827 110.322123,18.8272665 C109.730077,19.480033 109.261566,20.3568936 108.911333,21.4531375 C108.560442,22.5527463 108.386968,23.9269207 108.386968,25.5796986 L108.386968,30.5387051 C108.386968,32.0683322 108.542701,33.3698275 108.858108,34.442518 C109.170229,35.5158815 109.603257,36.3981257 110.159819,37.0892506 C110.713753,37.7803756 111.359023,38.2790354 112.094973,38.5872488 C112.831581,38.8961352 113.620755,39.050242 114.466441,39.050242 C115.576937,39.050242 116.504759,39.0260156 117.252537,38.9762169 C118.000972,38.9264182 118.59236,38.8766195 119.028674,38.8268209 L119.028674,28.2264312 C119.028674,28.0292553 119.087813,27.8556329 119.208061,27.7075828 C119.329625,27.5588597 119.485357,27.4848346 119.679858,27.4848346 L121.632097,27.4848346 C121.826598,27.4848346 121.988901,27.5588597 122.121635,27.7075828 C122.253712,27.8556329 122.32205,28.0292553 122.32205,28.2264312 L122.32205,40.7016739 C122.32205,41.1767803 122.103893,41.4526919 121.670866,41.526717" id="Fill-5" fill="#212121"></path>
            <path d="M130.738773,41.8664299 C130.60805,42.0154666 130.439673,42.0893075 130.232221,42.0893075 L128.197487,42.0893075 C127.987193,42.0893075 127.818105,42.0154666 127.688093,41.8664299 C127.55737,41.7160384 127.490587,41.5426139 127.490587,41.3427693 L127.490587,14.7383707 C127.490587,14.539881 127.55737,14.3711986 127.688093,14.2343558 C127.818105,14.0975131 127.987193,14.0297692 128.197487,14.0297692 L130.232221,14.0297692 C130.439673,14.0297692 130.60805,14.0975131 130.738773,14.2343558 C130.869496,14.3711986 130.936279,14.539881 130.936279,14.7383707 L130.936279,41.3427693 C130.936279,41.5426139 130.869496,41.7160384 130.738773,41.8664299" id="Fill-7" fill="#212121"></path>
            <path d="M151.406477,41.598876 C151.271402,41.749778 151.106904,41.8245431 150.908971,41.8245431 L149.068064,41.8245431 C148.8708,41.8245431 148.705633,41.7477203 148.571226,41.5940746 C148.436151,41.4404289 148.367276,41.2620902 148.367276,41.0576866 L148.367276,40.3285557 C147.336154,40.9143297 146.379925,41.356061 145.495916,41.649634 C144.611237,41.9418351 143.616224,42.0893075 142.512884,42.0893075 C140.276781,42.0893075 138.649186,41.4095626 137.633444,40.049387 C136.614359,38.6885255 136.104816,36.7501209 136.104816,34.2300577 L136.104816,21.8012214 C136.104816,21.5995615 136.176366,21.4225946 136.323478,21.2723786 C136.47059,21.1201047 136.64445,21.0446537 136.839039,21.0446537 L138.607727,21.0446537 C138.804991,21.0446537 138.976176,21.1201047 139.123288,21.2710067 C139.269732,21.4225946 139.344625,21.5981897 139.344625,21.7998496 L139.344625,34.2039928 C139.344625,35.1587908 139.422862,35.9565136 139.584685,36.597847 C139.743834,37.2391805 139.989243,37.7481317 140.322252,38.1247008 C140.651916,38.5012698 141.068511,38.7715215 141.572035,38.9347701 C142.07556,39.0987045 142.684069,39.1803287 143.397562,39.1803287 C144.182606,39.1803287 144.991722,39.0417733 145.828255,38.7653483 C146.661444,38.4889233 147.510013,38.1370473 148.367276,37.7097203 L148.367276,21.7998496 C148.367276,21.5981897 148.442169,21.4225946 148.589281,21.2710067 C148.735724,21.1201047 148.909584,21.0446537 149.104842,21.0446537 L150.908971,21.0446537 C151.106904,21.0446537 151.271402,21.1201047 151.406477,21.2723786 C151.541553,21.4225946 151.610428,21.5995615 151.610428,21.8012214 L151.610428,41.0686613 C151.610428,41.2710072 151.541553,41.4466022 151.406477,41.598876" id="Fill-9" fill="#212121"></path>
            <path d="M167.999544,29.9845346 C167.999544,27.9463296 167.611015,26.4941085 166.833305,25.6298312 C166.05364,24.7662071 164.875667,24.3363549 163.294824,24.3363549 C161.740056,24.3363549 160.548393,24.7910314 159.724399,25.701691 C158.897145,26.6143103 158.485148,28.0417071 158.485148,29.9845346 L158.485148,30.308557 L167.999544,30.308557 L167.999544,29.9845346 Z M171.158623,31.9273621 C171.158623,32.4558583 170.933068,32.7197797 170.480653,32.7197797 L158.485148,32.7197797 L158.485148,33.2234515 C158.485148,35.3583406 158.903012,36.8693561 159.742,37.7558446 C160.577077,38.6449463 161.824802,39.0885172 163.47605,39.0885172 C164.528207,39.0885172 165.64751,39.051934 166.833305,38.9807275 C168.017145,38.9088677 169.028233,38.8134901 169.866569,38.6919818 L170.045188,38.6919818 C170.191212,38.6919818 170.322243,38.7285649 170.442844,38.8004247 C170.56214,38.8716313 170.620811,39.003592 170.620811,39.1956536 L170.620811,40.4198832 C170.620811,40.6596336 170.573874,40.8458158 170.477394,40.9777765 C170.380914,41.1090839 170.191212,41.1998886 169.901771,41.2469241 C168.873082,41.4402922 167.85026,41.589238 166.833305,41.6963744 C165.813743,41.8048174 164.6977,41.8590388 163.47605,41.8590388 C162.444754,41.8590388 161.439533,41.7211987 160.460388,41.4442118 C159.478635,41.1691848 158.610964,40.7020962 157.856722,40.0422926 C157.103133,39.3831423 156.492308,38.4999201 156.0249,37.3978522 C155.557491,36.2938245 155.323461,34.9023576 155.323461,33.2234515 L155.323461,29.9845346 C155.323461,27.3930092 156.004039,25.3436985 157.365846,23.8307233 C158.727653,22.3197078 160.697025,21.5645267 163.277222,21.5645267 C164.592093,21.5645267 165.738123,21.7618145 166.716616,22.1590032 C167.695761,22.5535787 168.513889,23.1180048 169.170998,23.8496681 C169.828759,24.5819847 170.322243,25.4691265 170.658621,26.5117468 C170.991738,27.5556736 171.158623,28.7139228 171.158623,29.9845346 L171.158623,31.9273621 Z" id="Fill-11" fill="#212121"></path>
            <polygon id="Combined-Shape" fill="#212121" points="23.2584179 12.276048 10.3370746 19.8805281 10.3370746 31.5669806 14.7055304 28.9963588 15.2387447 28.6821569 15.2387447 22.7653518 20.8095337 19.4867815 20.8095337 28.1917813 21.9162785 28.8433855 23.1608787 29.5758603 24.4048287 28.8433855 25.4049306 28.2547542 25.7073022 28.0764414 25.7073022 19.4874443 31.2774409 22.7653518 31.2774409 28.441534 32.2203199 28.9963588 36.1797612 31.3263577 36.1797612 19.8805281"></polygon>
            <polygon id="Fill-16" fill="#212121" points="29.5198307 33.3207018 23.1555893 36.7573287 16.9970051 33.4315804 12.0599204 36.0981824 23.1555893 42.0893075 34.4569155 35.9866911 29.7156636 33.4260671"></polygon>
            <path d="M41.2166429,37.8758083 L25.7756073,47.070153 L25.7756073,46.3187273 L25.7756073,37.6109506 L20.9278777,37.6109506 L20.9278777,46.3187273 L20.9278777,47.1816721 L5.30019292,37.8758083 L5.30019292,16.4893813 L23.2584179,5.79616779 L41.2166429,16.4893813 L41.2166429,37.8758083 Z M44.8994242,12.3698156 L24.8758296,0.446573926 C23.8750038,-0.148857975 22.641832,-0.148857975 21.6410063,0.446573926 L1.61741164,12.3698156 C0.616585892,12.9659113 0,14.0671616 0,15.2593531 L0,39.1058365 C0,40.2980279 0.616585892,41.3992782 1.61741164,41.9953739 L21.6410063,53.9179518 C22.1410974,54.2159997 22.6997576,54.3653555 23.2584179,54.3653555 C23.8170782,54.3653555 24.3750949,54.2159997 24.8758296,53.9179518 L44.8994242,41.9953739 C45.90025,41.3992782 46.5168359,40.2980279 46.5168359,39.1058365 L46.5168359,15.2593531 C46.5168359,14.0671616 45.90025,12.9659113 44.8994242,12.3698156 Z" id="Fill-24" fill="#212121"></path>
            <text id="Simple.-Smart.-Secur" font-family="Lato-Regular, Lato" font-size="11.8949799" font-weight="normal" letter-spacing="0.0479715295">
                <tspan x="55.1310647" y="64.0682278" fill="#212121">Simple. Smart</tspan>
                <tspan x="127.011572" y="64.0682278" fill="#FFFFFF">.</tspan>
                <tspan x="129.866758" y="64.0682278" fill="#212121"> </tspan>
                <tspan x="132.959845" y="64.0682278" fill="#29AEAF">Secure.</tspan>
            </text>
        </g>
    </g>
</svg>